#!OML:ASF H:\Terrain\Patient Classification 1\Takeo\Monday\TakeoMonday.ASF
:FULLY-SPECIFIED
:DEGREES
376
root 18.3276 17.596 -0.574242 4.35993 -77.8878 -7.334
lowerback 5.95955 4.75145 0.878757
upperback 2.55258 6.33678 0.845587
thorax -0.696643 3.14882 -0.0278538
lowerneck -9.46054 8.38304 0.73232
upperneck -4.3973 10.9708 1.08969
head 0.1478 5.43771 0.522354
rclavicle -4.86091e-014 1.68967e-015
rhumerus 35.4917 21.5013 -30.915
rradius 76.7098
rwrist -29.3154
rhand -39.0176 19.81
rfingers 7.12502
rthumb -12.0206 -9.82484
lclavicle -4.86091e-014 1.68967e-015
lhumerus -3.85402 -15.9173 72.7888
lradius 83.6187
lwrist 25.1472
lhand -28.4832 21.4051
lfingers 7.12502
lthumb -1.85262 51.3768
rfemur -3.1667 -4.47624 11.4525
rtibia 26.9228
rfoot -11.6257 -15.5679
rtoes -13.2829
lfemur -11.4056 14.6746 -13.34
ltibia 34.7212
lfoot -17.7839 20.6739
ltoes 6.33086
377
root 18.327 17.5801 -0.61627 2.85706 -78.7112 -5.69457
lowerback 6.05879 4.71804 0.412406
upperback 2.48794 6.26963 0.869508
thorax -0.871152 3.11217 0.242196
lowerneck -9.44479 8.70597 0.34362
upperneck -4.25187 11.4391 1.20165
head 0.15979 5.67981 0.630928
rclavicle -6.1002e-015 3.37934e-015
rhumerus 34.7271 20.8438 -30.212
rradius 76.6835
rwrist -29.1546
rhand -39.114 20.7571
rfingers 7.12502
rthumb -12.1136 -8.87222
lclavicle -6.1002e-015 3.37934e-015
lhumerus -4.84078 -15.4743 73.0414
lradius 83.4632
lwrist 25.2097
lhand -28.3007 21.1832
lfingers 7.12502
lthumb -1.67629 51.1563
rfemur -3.70818 -4.77953 11.0623
rtibia 27.251
rfoot -11.8698 -14.8664
rtoes -11.7201
lfemur -11.1992 15.0939 -13.6905
ltibia 34.6134
lfoot -17.2596 21.2195
ltoes 3.85109
378
root 18.3232 17.5706 -0.665983 0.0938146 -79.5058 -2.88054
lowerback 6.09744 4.55508 -0.281756
upperback 2.55058 6.01124 0.789643
thorax -0.889944 2.97941 0.557756
lowerneck -9.16088 9.14785 0.235775
upperneck -4.52214 12.0408 1.11609
head 0.0227502 5.97793 0.612799
rclavicle 3.73591e-014 -1.19271e-015
rhumerus 34.2298 20.1863 -29.7422
rradius 76.9565
rwrist -29.3134
rhand -39.1648 20.5598
rfingers 7.12502
rthumb -12.1626 -9.06662
lclavicle 3.73591e-014 -1.19271e-015
lhumerus -5.81152 -14.691 73.0131
lradius 83.3982
lwrist 25.2192
lhand -28.3365 21.1208
lfingers 7.12502
lthumb -1.71094 51.0937
rfemur -4.1214 -5.04096 10.5261
rtibia 27.5932
rfoot -12.0053 -14.2741
rtoes -10.9195
lfemur -10.8447 15.3855 -14.1552
ltibia 34.4716
lfoot -17.7574 21.6132
ltoes 3.36007
379
root 18.3179 17.5776 -0.717919 -0.15742 -80.3216 -2.58723
lowerback 6.02106 4.42212 -0.326655
upperback 2.65267 5.82835 0.742067
thorax -0.739727 2.88678 0.55844
lowerneck -8.77316 9.56245 0.206296
upperneck -4.95095 12.6013 1.09085
head -0.178203 6.25322 0.586398
rclavicle -1.03741e-014 3.97569e-016
rhumerus 33.5484 19.3542 -29.2428
rradius 77.3817
rwrist -29.7511
rhand -39.6259 20.3079
rfingers 7.12502
rthumb -12.6072 -9.29166
lclavicle -1.03741e-014 3.97569e-016
lhumerus -6.52818 -14.0174 72.9102
lradius 83.1634
lwrist 25.0571
lhand -28.5807 20.7769
lfingers 7.12502
lthumb -1.94675 50.7478
rfemur -4.49581 -5.00929 10.6511
rtibia 27.9389
rfoot -12.2683 -13.7855
rtoes -10.2278
lfemur -10.7237 15.4867 -13.9604
ltibia 34.2793
lfoot -18.3072 22.0705
ltoes 4.70481
380
root 18.3107 17.578 -0.759176 -0.787085 -81.0154 -2.01819
lowerback 6.0744 4.34989 -0.160696
upperback 2.77281 5.73643 0.705996
thorax -0.624513 2.84034 0.438829
lowerneck -8.39117 9.82055 -0.201229
upperneck -5.3866 12.9899 1.25273
head -0.413647 6.45021 0.665238
rclavicle 3.20789e-014 -2.78299e-015
rhumerus 32.6184 18.4555 -28.5617
rradius 77.6187
rwrist -29.9539
rhand -40.0038 20.1436
rfingers 7.12502
rthumb -12.9714 -9.4332
lclavicle 3.20789e-014 -2.78299e-015
lhumerus -7.14726 -13.5683 73.0023
lradius 82.9014
lwrist 24.8777
lhand -28.5101 20.7837
lfingers 7.12502
lthumb -1.87855 50.7552
rfemur -4.69621 -4.96057 10.6663
rtibia 28.2067
rfoot -12.788 -13.1351
rtoes -8.9161
lfemur -10.4891 15.4175 -13.8524
ltibia 34.0863
lfoot -18.411 22.585
ltoes 6.5231
381
root 18.3015 17.5639 -0.798161 -2.48358 -81.5577 -0.249437
lowerback 6.08952 4.23196 -0.251479
upperback 2.78488 5.57388 0.713893
thorax -0.62827 2.75812 0.506892
lowerneck -8.00131 10.089 0.119848
upperneck -5.63432 13.3115 0.44052
head -0.478334 6.60137 0.355728
rclavicle 2.62644e-014 -7.7526e-015
rhumerus 31.7392 17.6825 -27.9473
rradius 77.591
rwrist -29.7683
rhand -39.9133 19.6309
rfingers 7.12502
rthumb -12.8842 -9.95143
lclavicle 2.62644e-014 -7.7526e-015
lhumerus -8.0154 -13.0816 73.269
lradius 82.7763
lwrist 24.7746
lhand -28.2495 21.2907
lfingers 7.12502
lthumb -1.62691 51.2642
rfemur -4.99161 -5.04914 10.4639
rtibia 28.3733
rfoot -13.1532 -12.5276
rtoes -7.19705
lfemur -10.2467 15.3079 -14.0174
ltibia 33.896
lfoot -18.953 22.7175
ltoes 9.10342
382
root 18.2914 17.553 -0.85421 -0.379875 -82.3691 -1.99752
lowerback 5.84876 4.18051 -0.21744
upperback 2.62675 5.51465 0.894574
thorax -0.671617 2.73002 0.687298
lowerneck -7.91259 10.4418 1.21112
upperneck -5.27303 13.676 -0.88632
head -0.21734 6.76472 -0.163202
rclavicle -1.14127e-013 -1.39149e-015
rhumerus 30.9437 17.0027 -27.455
rradius 77.4275
rwrist -29.5673
rhand -39.9569 19.1517
rfingers 7.12502
rthumb -12.9263 -10.4279
lclavicle -1.14127e-013 -1.39149e-015
lhumerus -8.96274 -12.5659 73.4428
lradius 82.7216
lwrist 24.9141
lhand -27.9638 21.8238
lfingers 7.12502
lthumb -1.35093 51.7993
rfemur -5.74661 -4.89128 11.006
rtibia 28.6666
rfoot -13.3073 -12.0998
rtoes -6.52124
lfemur -10.2856 15.8414 -13.5291
ltibia 33.6355
lfoot -19.296 22.582
ltoes 10.2113
383
root 18.2794 17.5481 -0.908878 -1.67367 -83.0872 -0.779027
lowerback 6.01041 4.14265 -0.428208
upperback 2.64229 5.45119 0.899922
thorax -0.764286 2.69631 0.800832
lowerneck -7.97512 10.835 1.83745
upperneck -4.70404 14.1501 -1.46312
head 0.0594796 6.99324 -0.379105
rclavicle 3.45388e-014 -1.92821e-014
rhumerus 30.059 16.1746 -27.06
rradius 77.299
rwrist -29.4238
rhand -39.8739 19.8454
rfingers 7.12502
rthumb -12.8462 -9.73926
lclavicle 3.45388e-014 -1.92821e-014
lhumerus -9.74655 -12.1561 73.4178
lradius 82.6945
lwrist 25.0751
lhand -27.8803 22.2347
lfingers 7.12502
lthumb -1.27027 52.2106
rfemur -5.98716 -4.53326 11.0246
rtibia 29.0393
rfoot -13.6233 -11.6627
rtoes -6.2679
lfemur -9.88379 16.2334 -13.4124
ltibia 33.4211
lfoot -19.2877 22.8141
ltoes 9.94449
384
root 18.2715 17.5351 -0.963063 -6.40735 -83.7628 4.00091
lowerback 6.06177 4.12214 -0.895795
upperback 2.67312 5.3954 0.769944
thorax -0.790258 2.66576 0.926844
lowerneck -7.78799 11.1934 2.29749
upperneck -4.5494 14.5956 -2.13709
head 0.171702 7.2082 -0.629371
rclavicle 2.39784e-014 -5.96354e-016
rhumerus 29.1135 15.2796 -26.6275
rradius 77.2924
rwrist -29.4051
rhand -39.5409 21.131
rfingers 7.12502
rthumb -12.5252 -8.47355
lclavicle 2.39784e-014 -5.96354e-016
lhumerus -10.4588 -11.8496 73.3665
lradius 82.6007
lwrist 24.8328
lhand -28.3084 22.336
lfingers 7.12502
lthumb -1.68372 52.3091
rfemur -6.42206 -4.34426 10.6581
rtibia 29.4153
rfoot -13.4738 -11.4708
rtoes -7.35984
lfemur -9.59651 16.5832 -13.7219
ltibia 33.3017
lfoot -19.7745 22.7012
ltoes 11.7579
